<?xml version="1.0" encoding="iso-8859-1"?>
<!-- Generator: Adobe Illustrator 19.0.0, SVG Export Plug-In . SVG Version: 6.00 Build 0)  -->
<svg version="1.1" id="Layer_1" xmlns="http://www.w3.org/2000/svg" xmlns:xlink="http://www.w3.org/1999/xlink" x="0px" y="0px"
	 viewBox="0 0 512 512" style="enable-background:new 0 0 512 512;" xml:space="preserve">
<circle style="fill:#21D8DE;" cx="256" cy="256" r="256"/>
<rect x="161.858" y="161.858" style="fill:#FFFFFF;" width="188.284" height="188.284"/>
<g>
	<rect x="246.949" y="185.476" style="fill:#F15424;" width="18.085" height="139.594"/>
	<rect x="188.746" y="185.476" style="fill:#F15424;" width="134.53" height="6.511"/>
	<polygon style="fill:#F15424;" points="193.794,210.792 193.794,181.866 198.861,191.987 	"/>
	<polygon style="fill:#F15424;" points="318.206,210.792 318.206,181.866 313.139,191.987 	"/>
	<rect x="188.746" y="181.876" style="fill:#F15424;" width="5.057" height="28.93"/>
	<polygon style="fill:#F15424;" points="283.846,325.077 265.041,325.077 265.041,320.013 	"/>
	<polygon style="fill:#F15424;" points="228.147,325.077 246.959,325.077 246.959,320.013 	"/>
	<rect x="228.154" y="325.07" style="fill:#F15424;" width="55.696" height="5.064"/>
	<rect x="318.2" y="181.876" style="fill:#F15424;" width="5.057" height="28.93"/>
</g>
<g>
	<polygon style="fill:#242D3C;" points="381.367,381.374 369.35,381.374 369.35,377.582 377.575,377.582 377.575,369.357 
		381.367,369.357 	"/>
	<path style="fill:#242D3C;" d="M348.741,381.374h-20.609v-3.792h20.609V381.374z M307.524,381.374h-20.609v-3.792h20.609V381.374z
		 M266.303,381.374h-20.609v-3.792h20.609L266.303,381.374L266.303,381.374z M225.085,381.374h-20.609v-3.792h20.609V381.374z
		 M183.864,381.374h-20.609v-3.792h20.609V381.374z"/>
	<polygon style="fill:#242D3C;" points="142.65,381.374 130.633,381.374 130.633,369.357 134.425,369.357 134.425,377.582 
		142.65,377.582 	"/>
	<path style="fill:#242D3C;" d="M134.425,348.748h-3.792v-20.609h3.792V348.748z M134.425,307.53h-3.792v-20.612h3.792V307.53z
		 M134.425,266.309h-3.792v-20.612h3.792V266.309z M134.425,225.092h-3.792V204.48h3.792V225.092z M134.425,183.871h-3.792v-20.612
		h3.792V183.871z"/>
	<polygon style="fill:#242D3C;" points="134.425,142.65 130.633,142.65 130.633,130.633 142.65,130.633 142.65,134.425 
		134.425,134.425 	"/>
	<path style="fill:#242D3C;" d="M348.745,134.425h-20.609v-3.792h20.609V134.425z M307.527,134.425h-20.609v-3.792h20.609V134.425z
		 M266.306,134.425h-20.609v-3.792h20.609V134.425z M225.088,134.425H204.48v-3.792h20.609V134.425z M183.867,134.425h-20.609
		v-3.792h20.609V134.425z"/>
	<polygon style="fill:#242D3C;" points="381.367,142.65 377.575,142.65 377.575,134.425 369.35,134.425 369.35,130.633 
		381.367,130.633 	"/>
	<path style="fill:#242D3C;" d="M381.367,348.748h-3.792v-20.612h3.792V348.748z M381.367,307.53h-3.792v-20.612h3.792V307.53z
		 M381.367,266.309h-3.792v-20.612h3.792V266.309z M381.367,225.088h-3.792V204.48h3.792V225.088z M381.367,183.867h-3.792v-20.609
		h3.792V183.867z"/>
	<polygon style="fill:#242D3C;" points="115.613,141.702 115.613,115.613 141.695,115.613 	"/>
	<polygon style="fill:#242D3C;" points="396.387,141.702 370.302,115.62 396.387,115.62 	"/>
	<polygon style="fill:#242D3C;" points="141.695,396.387 115.613,396.387 115.613,370.305 	"/>
	<polygon style="fill:#242D3C;" points="396.387,396.387 370.302,396.387 396.387,370.305 	"/>
</g>
<g>
</g>
<g>
</g>
<g>
</g>
<g>
</g>
<g>
</g>
<g>
</g>
<g>
</g>
<g>
</g>
<g>
</g>
<g>
</g>
<g>
</g>
<g>
</g>
<g>
</g>
<g>
</g>
<g>
</g>
</svg>
